<svg xmlns="http://www.w3.org/2000/svg" version="1.1" xmlns:xlink="http://www.w3.org/1999/xlink"
    xmlns:svgjs="http://svgjs.dev/svgjs" width="100%" height="60" viewBox="0 0 800 800" opacity="1">
    <defs>
        <linearGradient gradientTransform="rotate(270)" x1="50%" y1="0%" x2="50%" y2="100%" id="sssquiggly-grad">
            <stop stop-color="hsl(30, 100%, 50%)" stop-opacity="1" offset="0%"></stop>
            <stop stop-color="hsl(30, 100%, 70%)" stop-opacity="1" offset="100%"></stop>
        </linearGradient>
    </defs>
    <g stroke-width="0.5" stroke="url(#sssquiggly-grad)" fill="none" stroke-linecap="round"
        transform="matrix(1,0,0,1,-5,281.0654602050781)">
        <path
            d="M10,10C31.726190476190478,28.333333333333332,68.75,116.33333333333333,114.28571428571429,98C159.82142857142858,79.66666666666667,180.95238095238096,-67.375,228.57142857142858,-78C276.1904761904762,-88.625,295.2380952380953,38.875,342.8571428571429,47C390.4761904761905,55.125,409.5238095238095,-43.583333333333336,457.14285714285717,-39C504.7619047619048,-34.416666666666664,523.8095238095239,62.958333333333336,571.4285714285714,69C619.047619047619,75.04166666666667,638.0952380952382,-7.291666666666667,685.7142857142858,-10C733.3333333333334,-12.708333333333332,776.1904761904761,42.25,800,56">
        </path>
        <path
            d="M10,10C31.726190476190478,28.333333333333332,68.75,116.33333333333333,114.28571428571429,98C159.82142857142858,79.66666666666667,180.95238095238096,-67.375,228.57142857142858,-78C276.1904761904762,-88.625,295.2380952380953,38.875,342.8571428571429,47C390.4761904761905,55.125,409.5238095238095,-43.583333333333336,457.14285714285717,-39C504.7619047619048,-34.416666666666664,523.8095238095239,62.958333333333336,571.4285714285714,69C619.047619047619,75.04166666666667,638.0952380952382,-7.291666666666667,685.7142857142858,-10C733.3333333333334,-12.708333333333332,776.1904761904761,42.25,800,56"
            transform="matrix(1,0,0,1,0,216)"></path>
        <path
            d="M10,10C31.726190476190478,28.333333333333332,68.75,116.33333333333333,114.28571428571429,98C159.82142857142858,79.66666666666667,180.95238095238096,-67.375,228.57142857142858,-78C276.1904761904762,-88.625,295.2380952380953,38.875,342.8571428571429,47C390.4761904761905,55.125,409.5238095238095,-43.583333333333336,457.14285714285717,-39C504.7619047619048,-34.416666666666664,523.8095238095239,62.958333333333336,571.4285714285714,69C619.047619047619,75.04166666666667,638.0952380952382,-7.291666666666667,685.7142857142858,-10C733.3333333333334,-12.708333333333332,776.1904761904761,42.25,800,56"
            transform="matrix(1,0,0,1,0,204)"></path>
        <path
            d="M10,10C31.726190476190478,28.333333333333332,68.75,116.33333333333333,114.28571428571429,98C159.82142857142858,79.66666666666667,180.95238095238096,-67.375,228.57142857142858,-78C276.1904761904762,-88.625,295.2380952380953,38.875,342.8571428571429,47C390.4761904761905,55.125,409.5238095238095,-43.583333333333336,457.14285714285717,-39C504.7619047619048,-34.416666666666664,523.8095238095239,62.958333333333336,571.4285714285714,69C619.047619047619,75.04166666666667,638.0952380952382,-7.291666666666667,685.7142857142858,-10C733.3333333333334,-12.708333333333332,776.1904761904761,42.25,800,56"
            transform="matrix(1,0,0,1,0,192)"></path>
        <path
            d="M10,10C31.726190476190478,28.333333333333332,68.75,116.33333333333333,114.28571428571429,98C159.82142857142858,79.66666666666667,180.95238095238096,-67.375,228.57142857142858,-78C276.1904761904762,-88.625,295.2380952380953,38.875,342.8571428571429,47C390.4761904761905,55.125,409.5238095238095,-43.583333333333336,457.14285714285717,-39C504.7619047619048,-34.416666666666664,523.8095238095239,62.958333333333336,571.4285714285714,69C619.047619047619,75.04166666666667,638.0952380952382,-7.291666666666667,685.7142857142858,-10C733.3333333333334,-12.708333333333332,776.1904761904761,42.25,800,56"
            transform="matrix(1,0,0,1,0,180)"></path>
        <path
            d="M10,10C31.726190476190478,28.333333333333332,68.75,116.33333333333333,114.28571428571429,98C159.82142857142858,79.66666666666667,180.95238095238096,-67.375,228.57142857142858,-78C276.1904761904762,-88.625,295.2380952380953,38.875,342.8571428571429,47C390.4761904761905,55.125,409.5238095238095,-43.583333333333336,457.14285714285717,-39C504.7619047619048,-34.416666666666664,523.8095238095239,62.958333333333336,571.4285714285714,69C619.047619047619,75.04166666666667,638.0952380952382,-7.291666666666667,685.7142857142858,-10C733.3333333333334,-12.708333333333332,776.1904761904761,42.25,800,56"
            transform="matrix(1,0,0,1,0,168)"></path>
        <path
            d="M10,10C31.726190476190478,28.333333333333332,68.75,116.33333333333333,114.28571428571429,98C159.82142857142858,79.66666666666667,180.95238095238096,-67.375,228.57142857142858,-78C276.1904761904762,-88.625,295.2380952380953,38.875,342.8571428571429,47C390.4761904761905,55.125,409.5238095238095,-43.583333333333336,457.14285714285717,-39C504.7619047619048,-34.416666666666664,523.8095238095239,62.958333333333336,571.4285714285714,69C619.047619047619,75.04166666666667,638.0952380952382,-7.291666666666667,685.7142857142858,-10C733.3333333333334,-12.708333333333332,776.1904761904761,42.25,800,56"
            transform="matrix(1,0,0,1,0,156)"></path>
        <path
            d="M10,10C31.726190476190478,28.333333333333332,68.75,116.33333333333333,114.28571428571429,98C159.82142857142858,79.66666666666667,180.95238095238096,-67.375,228.57142857142858,-78C276.1904761904762,-88.625,295.2380952380953,38.875,342.8571428571429,47C390.4761904761905,55.125,409.5238095238095,-43.583333333333336,457.14285714285717,-39C504.7619047619048,-34.416666666666664,523.8095238095239,62.958333333333336,571.4285714285714,69C619.047619047619,75.04166666666667,638.0952380952382,-7.291666666666667,685.7142857142858,-10C733.3333333333334,-12.708333333333332,776.1904761904761,42.25,800,56"
            transform="matrix(1,0,0,1,0,144)"></path>
        <path
            d="M10,10C31.726190476190478,28.333333333333332,68.75,116.33333333333333,114.28571428571429,98C159.82142857142858,79.66666666666667,180.95238095238096,-67.375,228.57142857142858,-78C276.1904761904762,-88.625,295.2380952380953,38.875,342.8571428571429,47C390.4761904761905,55.125,409.5238095238095,-43.583333333333336,457.14285714285717,-39C504.7619047619048,-34.416666666666664,523.8095238095239,62.958333333333336,571.4285714285714,69C619.047619047619,75.04166666666667,638.0952380952382,-7.291666666666667,685.7142857142858,-10C733.3333333333334,-12.708333333333332,776.1904761904761,42.25,800,56"
            transform="matrix(1,0,0,1,0,132)"></path>
        <path
            d="M10,10C31.726190476190478,28.333333333333332,68.75,116.33333333333333,114.28571428571429,98C159.82142857142858,79.66666666666667,180.95238095238096,-67.375,228.57142857142858,-78C276.1904761904762,-88.625,295.2380952380953,38.875,342.8571428571429,47C390.4761904761905,55.125,409.5238095238095,-43.583333333333336,457.14285714285717,-39C504.7619047619048,-34.416666666666664,523.8095238095239,62.958333333333336,571.4285714285714,69C619.047619047619,75.04166666666667,638.0952380952382,-7.291666666666667,685.7142857142858,-10C733.3333333333334,-12.708333333333332,776.1904761904761,42.25,800,56"
            transform="matrix(1,0,0,1,0,120)"></path>
        <path
            d="M10,10C31.726190476190478,28.333333333333332,68.75,116.33333333333333,114.28571428571429,98C159.82142857142858,79.66666666666667,180.95238095238096,-67.375,228.57142857142858,-78C276.1904761904762,-88.625,295.2380952380953,38.875,342.8571428571429,47C390.4761904761905,55.125,409.5238095238095,-43.583333333333336,457.14285714285717,-39C504.7619047619048,-34.416666666666664,523.8095238095239,62.958333333333336,571.4285714285714,69C619.047619047619,75.04166666666667,638.0952380952382,-7.291666666666667,685.7142857142858,-10C733.3333333333334,-12.708333333333332,776.1904761904761,42.25,800,56"
            transform="matrix(1,0,0,1,0,108)"></path>
        <path
            d="M10,10C31.726190476190478,28.333333333333332,68.75,116.33333333333333,114.28571428571429,98C159.82142857142858,79.66666666666667,180.95238095238096,-67.375,228.57142857142858,-78C276.1904761904762,-88.625,295.2380952380953,38.875,342.8571428571429,47C390.4761904761905,55.125,409.5238095238095,-43.583333333333336,457.14285714285717,-39C504.7619047619048,-34.416666666666664,523.8095238095239,62.958333333333336,571.4285714285714,69C619.047619047619,75.04166666666667,638.0952380952382,-7.291666666666667,685.7142857142858,-10C733.3333333333334,-12.708333333333332,776.1904761904761,42.25,800,56"
            transform="matrix(1,0,0,1,0,96)"></path>
        <path
            d="M10,10C31.726190476190478,28.333333333333332,68.75,116.33333333333333,114.28571428571429,98C159.82142857142858,79.66666666666667,180.95238095238096,-67.375,228.57142857142858,-78C276.1904761904762,-88.625,295.2380952380953,38.875,342.8571428571429,47C390.4761904761905,55.125,409.5238095238095,-43.583333333333336,457.14285714285717,-39C504.7619047619048,-34.416666666666664,523.8095238095239,62.958333333333336,571.4285714285714,69C619.047619047619,75.04166666666667,638.0952380952382,-7.291666666666667,685.7142857142858,-10C733.3333333333334,-12.708333333333332,776.1904761904761,42.25,800,56"
            transform="matrix(1,0,0,1,0,84)"></path>
        <path
            d="M10,10C31.726190476190478,28.333333333333332,68.75,116.33333333333333,114.28571428571429,98C159.82142857142858,79.66666666666667,180.95238095238096,-67.375,228.57142857142858,-78C276.1904761904762,-88.625,295.2380952380953,38.875,342.8571428571429,47C390.4761904761905,55.125,409.5238095238095,-43.583333333333336,457.14285714285717,-39C504.7619047619048,-34.416666666666664,523.8095238095239,62.958333333333336,571.4285714285714,69C619.047619047619,75.04166666666667,638.0952380952382,-7.291666666666667,685.7142857142858,-10C733.3333333333334,-12.708333333333332,776.1904761904761,42.25,800,56"
            transform="matrix(1,0,0,1,0,72)"></path>
        <path
            d="M10,10C31.726190476190478,28.333333333333332,68.75,116.33333333333333,114.28571428571429,98C159.82142857142858,79.66666666666667,180.95238095238096,-67.375,228.57142857142858,-78C276.1904761904762,-88.625,295.2380952380953,38.875,342.8571428571429,47C390.4761904761905,55.125,409.5238095238095,-43.583333333333336,457.14285714285717,-39C504.7619047619048,-34.416666666666664,523.8095238095239,62.958333333333336,571.4285714285714,69C619.047619047619,75.04166666666667,638.0952380952382,-7.291666666666667,685.7142857142858,-10C733.3333333333334,-12.708333333333332,776.1904761904761,42.25,800,56"
            transform="matrix(1,0,0,1,0,60)"></path>
        <path
            d="M10,10C31.726190476190478,28.333333333333332,68.75,116.33333333333333,114.28571428571429,98C159.82142857142858,79.66666666666667,180.95238095238096,-67.375,228.57142857142858,-78C276.1904761904762,-88.625,295.2380952380953,38.875,342.8571428571429,47C390.4761904761905,55.125,409.5238095238095,-43.583333333333336,457.14285714285717,-39C504.7619047619048,-34.416666666666664,523.8095238095239,62.958333333333336,571.4285714285714,69C619.047619047619,75.04166666666667,638.0952380952382,-7.291666666666667,685.7142857142858,-10C733.3333333333334,-12.708333333333332,776.1904761904761,42.25,800,56"
            transform="matrix(1,0,0,1,0,48)"></path>
        <path
            d="M10,10C31.726190476190478,28.333333333333332,68.75,116.33333333333333,114.28571428571429,98C159.82142857142858,79.66666666666667,180.95238095238096,-67.375,228.57142857142858,-78C276.1904761904762,-88.625,295.2380952380953,38.875,342.8571428571429,47C390.4761904761905,55.125,409.5238095238095,-43.583333333333336,457.14285714285717,-39C504.7619047619048,-34.416666666666664,523.8095238095239,62.958333333333336,571.4285714285714,69C619.047619047619,75.04166666666667,638.0952380952382,-7.291666666666667,685.7142857142858,-10C733.3333333333334,-12.708333333333332,776.1904761904761,42.25,800,56"
            transform="matrix(1,0,0,1,0,36)"></path>
        <path
            d="M10,10C31.726190476190478,28.333333333333332,68.75,116.33333333333333,114.28571428571429,98C159.82142857142858,79.66666666666667,180.95238095238096,-67.375,228.57142857142858,-78C276.1904761904762,-88.625,295.2380952380953,38.875,342.8571428571429,47C390.4761904761905,55.125,409.5238095238095,-43.583333333333336,457.14285714285717,-39C504.7619047619048,-34.416666666666664,523.8095238095239,62.958333333333336,571.4285714285714,69C619.047619047619,75.04166666666667,638.0952380952382,-7.291666666666667,685.7142857142858,-10C733.3333333333334,-12.708333333333332,776.1904761904761,42.25,800,56"
            transform="matrix(1,0,0,1,0,24)"></path>
        <path
            d="M10,10C31.726190476190478,28.333333333333332,68.75,116.33333333333333,114.28571428571429,98C159.82142857142858,79.66666666666667,180.95238095238096,-67.375,228.57142857142858,-78C276.1904761904762,-88.625,295.2380952380953,38.875,342.8571428571429,47C390.4761904761905,55.125,409.5238095238095,-43.583333333333336,457.14285714285717,-39C504.7619047619048,-34.416666666666664,523.8095238095239,62.958333333333336,571.4285714285714,69C619.047619047619,75.04166666666667,638.0952380952382,-7.291666666666667,685.7142857142858,-10C733.3333333333334,-12.708333333333332,776.1904761904761,42.25,800,56"
            transform="matrix(1,0,0,1,0,12)"></path>
    </g>
</svg>