<svg xmlns="http://www.w3.org/2000/svg" version="1.1" viewBox="0 0 800 800">
    <style type="text/css">
        :root {
            --primary-background: rgb(26, 30, 36);
            --secondary-background: rgb(40, 44, 52);

            --primary-color: rgb(206, 13, 79);
            --secondary-color: rgb(36, 40, 73);

            --primary-text: rgb(250, 250, 250);
            --secondary-text: rgb(170, 170, 170);
            --third-text: rgb(102, 102, 102);
        }

        .wave {
            /* fill: transparent; */
            /* stroke-width: 10; */
            stroke: rgb(40, 44, 52);
            animation: wave-move 5s infinite;
        }

        .wave-colour {
            /* animation: wave-colour 10s ease infinite; */
        }

        @keyframes wave-colour {
            0% {
                stroke: rgb(40, 44, 52);
            }

            40% {
                stroke: rgb(40, 44, 52);
            }

            55% {
                stroke: rgb(206, 13, 79);
            }

            70% {
                stroke: rgb(40, 44, 52);
            }

            100% {
                stroke: rgb(40, 44, 52);
            }
        }

        @keyframes wave-move {
            0% {
                transform: translateX(0px);
            }

            40% {
                transform: translateX(100px);
            }

            55% {
                transform: translateX(0px);
            }

            70% {
                transform: translateX(100px);
            }

            100% {
                transform: translateX(100px);
            }
        }
    </style>
    <defs>
        <linearGradient gradientTransform="rotate(270)" x1="50%" y1="0%" x2="50%" y2="100%" id="sssquiggly-grad">
            <stop stop-color="rgb(40, 44, 52)" stop-opacity="1" offset="00%"></stop>
            <stop stop-color="rgb(26, 30, 36)" stop-opacity="1" offset="50%"></stop>
            <stop stop-color="rgb(206, 13, 79)" stop-opacity="1" offset="100%"></stop>
        </linearGradient>
    </defs>
    <g stroke-width="2" stroke="url(#sssquiggly-grad)" fill="none" stroke-linecap="round"
        transform="matrix(1,0,0,1,-5,251.03554916381836)">
        <path
            d="M10,10C15.492424242424242,10.416666666666666,23.295454545454547,15.75,36.36363636363637,12C49.43181818181819,8.25,57.575757575757585,-9.458333333333334,72.72727272727273,-8C87.87878787878788,-6.541666666666666,93.93939393939394,17.75,109.0909090909091,19C124.24242424242425,20.25,130.3030303030303,-2.625,145.45454545454547,-2C160.60606060606062,-1.375,166.66666666666669,21.375,181.81818181818184,22C196.969696969697,22.625,203.03030303030303,-0.25,218.1818181818182,1C233.33333333333334,2.25,239.3939393939394,26.958333333333332,254.54545454545456,28C269.69696969696975,29.041666666666668,275.75757575757575,5.791666666666667,290.90909090909093,6C306.0606060606061,6.208333333333333,312.1212121212121,28.166666666666668,327.2727272727273,29C342.4242424242425,29.833333333333332,348.4848484848485,8.958333333333334,363.6363636363637,10C378.78787878787887,11.041666666666666,384.84848484848493,33.375,400.00000000000006,34C415.1515151515152,34.625,421.21212121212125,12.166666666666666,436.3636363636364,13C451.5151515151515,13.833333333333334,457.5757575757576,37.166666666666664,472.72727272727275,38C487.8787878787879,38.833333333333336,493.939393939394,15.75,509.0909090909091,17C524.2424242424242,18.25,530.3030303030304,43.583333333333336,545.4545454545455,44C560.6060606060606,44.416666666666664,566.6666666666667,18.791666666666668,581.8181818181819,19C596.969696969697,19.208333333333332,603.0303030303031,43.541666666666664,618.1818181818182,45C633.3333333333334,46.458333333333336,639.3939393939395,24.75,654.5454545454546,26C669.6969696969697,27.25,675.7575757575759,50.583333333333336,690.909090909091,51C706.0606060606061,51.416666666666664,712.1212121212122,26.958333333333332,727.2727272727274,28C742.4242424242425,29.041666666666668,748.4848484848486,55.375,763.6363636363637,56C778.7878787878789,56.625,792.4242424242425,36.208333333333336,800.0000000000001,31"
            transform="matrix(1,0,0,1,0,160)">
        </path>
        <path
            d="M10,10C15.492424242424242,10.416666666666666,23.295454545454547,15.75,36.36363636363637,12C49.43181818181819,8.25,57.575757575757585,-9.458333333333334,72.72727272727273,-8C87.87878787878788,-6.541666666666666,93.93939393939394,17.75,109.0909090909091,19C124.24242424242425,20.25,130.3030303030303,-2.625,145.45454545454547,-2C160.60606060606062,-1.375,166.66666666666669,21.375,181.81818181818184,22C196.969696969697,22.625,203.03030303030303,-0.25,218.1818181818182,1C233.33333333333334,2.25,239.3939393939394,26.958333333333332,254.54545454545456,28C269.69696969696975,29.041666666666668,275.75757575757575,5.791666666666667,290.90909090909093,6C306.0606060606061,6.208333333333333,312.1212121212121,28.166666666666668,327.2727272727273,29C342.4242424242425,29.833333333333332,348.4848484848485,8.958333333333334,363.6363636363637,10C378.78787878787887,11.041666666666666,384.84848484848493,33.375,400.00000000000006,34C415.1515151515152,34.625,421.21212121212125,12.166666666666666,436.3636363636364,13C451.5151515151515,13.833333333333334,457.5757575757576,37.166666666666664,472.72727272727275,38C487.8787878787879,38.833333333333336,493.939393939394,15.75,509.0909090909091,17C524.2424242424242,18.25,530.3030303030304,43.583333333333336,545.4545454545455,44C560.6060606060606,44.416666666666664,566.6666666666667,18.791666666666668,581.8181818181819,19C596.969696969697,19.208333333333332,603.0303030303031,43.541666666666664,618.1818181818182,45C633.3333333333334,46.458333333333336,639.3939393939395,24.75,654.5454545454546,26C669.6969696969697,27.25,675.7575757575759,50.583333333333336,690.909090909091,51C706.0606060606061,51.416666666666664,712.1212121212122,26.958333333333332,727.2727272727274,28C742.4242424242425,29.041666666666668,748.4848484848486,55.375,763.6363636363637,56C778.7878787878789,56.625,792.4242424242425,36.208333333333336,800.0000000000001,31"
            transform="matrix(1,0,0,1,0,150)">
        </path>
        <path
            d="M10,10C15.492424242424242,10.416666666666666,23.295454545454547,15.75,36.36363636363637,12C49.43181818181819,8.25,57.575757575757585,-9.458333333333334,72.72727272727273,-8C87.87878787878788,-6.541666666666666,93.93939393939394,17.75,109.0909090909091,19C124.24242424242425,20.25,130.3030303030303,-2.625,145.45454545454547,-2C160.60606060606062,-1.375,166.66666666666669,21.375,181.81818181818184,22C196.969696969697,22.625,203.03030303030303,-0.25,218.1818181818182,1C233.33333333333334,2.25,239.3939393939394,26.958333333333332,254.54545454545456,28C269.69696969696975,29.041666666666668,275.75757575757575,5.791666666666667,290.90909090909093,6C306.0606060606061,6.208333333333333,312.1212121212121,28.166666666666668,327.2727272727273,29C342.4242424242425,29.833333333333332,348.4848484848485,8.958333333333334,363.6363636363637,10C378.78787878787887,11.041666666666666,384.84848484848493,33.375,400.00000000000006,34C415.1515151515152,34.625,421.21212121212125,12.166666666666666,436.3636363636364,13C451.5151515151515,13.833333333333334,457.5757575757576,37.166666666666664,472.72727272727275,38C487.8787878787879,38.833333333333336,493.939393939394,15.75,509.0909090909091,17C524.2424242424242,18.25,530.3030303030304,43.583333333333336,545.4545454545455,44C560.6060606060606,44.416666666666664,566.6666666666667,18.791666666666668,581.8181818181819,19C596.969696969697,19.208333333333332,603.0303030303031,43.541666666666664,618.1818181818182,45C633.3333333333334,46.458333333333336,639.3939393939395,24.75,654.5454545454546,26C669.6969696969697,27.25,675.7575757575759,50.583333333333336,690.909090909091,51C706.0606060606061,51.416666666666664,712.1212121212122,26.958333333333332,727.2727272727274,28C742.4242424242425,29.041666666666668,748.4848484848486,55.375,763.6363636363637,56C778.7878787878789,56.625,792.4242424242425,36.208333333333336,800.0000000000001,31"
            transform="matrix(1,0,0,1,0,140)">
        </path>
        <path
            d="M10,10C15.492424242424242,10.416666666666666,23.295454545454547,15.75,36.36363636363637,12C49.43181818181819,8.25,57.575757575757585,-9.458333333333334,72.72727272727273,-8C87.87878787878788,-6.541666666666666,93.93939393939394,17.75,109.0909090909091,19C124.24242424242425,20.25,130.3030303030303,-2.625,145.45454545454547,-2C160.60606060606062,-1.375,166.66666666666669,21.375,181.81818181818184,22C196.969696969697,22.625,203.03030303030303,-0.25,218.1818181818182,1C233.33333333333334,2.25,239.3939393939394,26.958333333333332,254.54545454545456,28C269.69696969696975,29.041666666666668,275.75757575757575,5.791666666666667,290.90909090909093,6C306.0606060606061,6.208333333333333,312.1212121212121,28.166666666666668,327.2727272727273,29C342.4242424242425,29.833333333333332,348.4848484848485,8.958333333333334,363.6363636363637,10C378.78787878787887,11.041666666666666,384.84848484848493,33.375,400.00000000000006,34C415.1515151515152,34.625,421.21212121212125,12.166666666666666,436.3636363636364,13C451.5151515151515,13.833333333333334,457.5757575757576,37.166666666666664,472.72727272727275,38C487.8787878787879,38.833333333333336,493.939393939394,15.75,509.0909090909091,17C524.2424242424242,18.25,530.3030303030304,43.583333333333336,545.4545454545455,44C560.6060606060606,44.416666666666664,566.6666666666667,18.791666666666668,581.8181818181819,19C596.969696969697,19.208333333333332,603.0303030303031,43.541666666666664,618.1818181818182,45C633.3333333333334,46.458333333333336,639.3939393939395,24.75,654.5454545454546,26C669.6969696969697,27.25,675.7575757575759,50.583333333333336,690.909090909091,51C706.0606060606061,51.416666666666664,712.1212121212122,26.958333333333332,727.2727272727274,28C742.4242424242425,29.041666666666668,748.4848484848486,55.375,763.6363636363637,56C778.7878787878789,56.625,792.4242424242425,36.208333333333336,800.0000000000001,31"
            transform="matrix(1,0,0,1,0,130)">
        </path>
        <path
            d="M10,10C15.492424242424242,10.416666666666666,23.295454545454547,15.75,36.36363636363637,12C49.43181818181819,8.25,57.575757575757585,-9.458333333333334,72.72727272727273,-8C87.87878787878788,-6.541666666666666,93.93939393939394,17.75,109.0909090909091,19C124.24242424242425,20.25,130.3030303030303,-2.625,145.45454545454547,-2C160.60606060606062,-1.375,166.66666666666669,21.375,181.81818181818184,22C196.969696969697,22.625,203.03030303030303,-0.25,218.1818181818182,1C233.33333333333334,2.25,239.3939393939394,26.958333333333332,254.54545454545456,28C269.69696969696975,29.041666666666668,275.75757575757575,5.791666666666667,290.90909090909093,6C306.0606060606061,6.208333333333333,312.1212121212121,28.166666666666668,327.2727272727273,29C342.4242424242425,29.833333333333332,348.4848484848485,8.958333333333334,363.6363636363637,10C378.78787878787887,11.041666666666666,384.84848484848493,33.375,400.00000000000006,34C415.1515151515152,34.625,421.21212121212125,12.166666666666666,436.3636363636364,13C451.5151515151515,13.833333333333334,457.5757575757576,37.166666666666664,472.72727272727275,38C487.8787878787879,38.833333333333336,493.939393939394,15.75,509.0909090909091,17C524.2424242424242,18.25,530.3030303030304,43.583333333333336,545.4545454545455,44C560.6060606060606,44.416666666666664,566.6666666666667,18.791666666666668,581.8181818181819,19C596.969696969697,19.208333333333332,603.0303030303031,43.541666666666664,618.1818181818182,45C633.3333333333334,46.458333333333336,639.3939393939395,24.75,654.5454545454546,26C669.6969696969697,27.25,675.7575757575759,50.583333333333336,690.909090909091,51C706.0606060606061,51.416666666666664,712.1212121212122,26.958333333333332,727.2727272727274,28C742.4242424242425,29.041666666666668,748.4848484848486,55.375,763.6363636363637,56C778.7878787878789,56.625,792.4242424242425,36.208333333333336,800.0000000000001,31"
            transform="matrix(1,0,0,1,0,120)">
        </path>
        <path
            d="M10,10C15.492424242424242,10.416666666666666,23.295454545454547,15.75,36.36363636363637,12C49.43181818181819,8.25,57.575757575757585,-9.458333333333334,72.72727272727273,-8C87.87878787878788,-6.541666666666666,93.93939393939394,17.75,109.0909090909091,19C124.24242424242425,20.25,130.3030303030303,-2.625,145.45454545454547,-2C160.60606060606062,-1.375,166.66666666666669,21.375,181.81818181818184,22C196.969696969697,22.625,203.03030303030303,-0.25,218.1818181818182,1C233.33333333333334,2.25,239.3939393939394,26.958333333333332,254.54545454545456,28C269.69696969696975,29.041666666666668,275.75757575757575,5.791666666666667,290.90909090909093,6C306.0606060606061,6.208333333333333,312.1212121212121,28.166666666666668,327.2727272727273,29C342.4242424242425,29.833333333333332,348.4848484848485,8.958333333333334,363.6363636363637,10C378.78787878787887,11.041666666666666,384.84848484848493,33.375,400.00000000000006,34C415.1515151515152,34.625,421.21212121212125,12.166666666666666,436.3636363636364,13C451.5151515151515,13.833333333333334,457.5757575757576,37.166666666666664,472.72727272727275,38C487.8787878787879,38.833333333333336,493.939393939394,15.75,509.0909090909091,17C524.2424242424242,18.25,530.3030303030304,43.583333333333336,545.4545454545455,44C560.6060606060606,44.416666666666664,566.6666666666667,18.791666666666668,581.8181818181819,19C596.969696969697,19.208333333333332,603.0303030303031,43.541666666666664,618.1818181818182,45C633.3333333333334,46.458333333333336,639.3939393939395,24.75,654.5454545454546,26C669.6969696969697,27.25,675.7575757575759,50.583333333333336,690.909090909091,51C706.0606060606061,51.416666666666664,712.1212121212122,26.958333333333332,727.2727272727274,28C742.4242424242425,29.041666666666668,748.4848484848486,55.375,763.6363636363637,56C778.7878787878789,56.625,792.4242424242425,36.208333333333336,800.0000000000001,31"
            transform="matrix(1,0,0,1,0,110)">
        </path>
        <path
            d="M10,10C15.492424242424242,10.416666666666666,23.295454545454547,15.75,36.36363636363637,12C49.43181818181819,8.25,57.575757575757585,-9.458333333333334,72.72727272727273,-8C87.87878787878788,-6.541666666666666,93.93939393939394,17.75,109.0909090909091,19C124.24242424242425,20.25,130.3030303030303,-2.625,145.45454545454547,-2C160.60606060606062,-1.375,166.66666666666669,21.375,181.81818181818184,22C196.969696969697,22.625,203.03030303030303,-0.25,218.1818181818182,1C233.33333333333334,2.25,239.3939393939394,26.958333333333332,254.54545454545456,28C269.69696969696975,29.041666666666668,275.75757575757575,5.791666666666667,290.90909090909093,6C306.0606060606061,6.208333333333333,312.1212121212121,28.166666666666668,327.2727272727273,29C342.4242424242425,29.833333333333332,348.4848484848485,8.958333333333334,363.6363636363637,10C378.78787878787887,11.041666666666666,384.84848484848493,33.375,400.00000000000006,34C415.1515151515152,34.625,421.21212121212125,12.166666666666666,436.3636363636364,13C451.5151515151515,13.833333333333334,457.5757575757576,37.166666666666664,472.72727272727275,38C487.8787878787879,38.833333333333336,493.939393939394,15.75,509.0909090909091,17C524.2424242424242,18.25,530.3030303030304,43.583333333333336,545.4545454545455,44C560.6060606060606,44.416666666666664,566.6666666666667,18.791666666666668,581.8181818181819,19C596.969696969697,19.208333333333332,603.0303030303031,43.541666666666664,618.1818181818182,45C633.3333333333334,46.458333333333336,639.3939393939395,24.75,654.5454545454546,26C669.6969696969697,27.25,675.7575757575759,50.583333333333336,690.909090909091,51C706.0606060606061,51.416666666666664,712.1212121212122,26.958333333333332,727.2727272727274,28C742.4242424242425,29.041666666666668,748.4848484848486,55.375,763.6363636363637,56C778.7878787878789,56.625,792.4242424242425,36.208333333333336,800.0000000000001,31"
            transform="matrix(1,0,0,1,0,100)">
        </path>
        <path
            d="M10,10C15.492424242424242,10.416666666666666,23.295454545454547,15.75,36.36363636363637,12C49.43181818181819,8.25,57.575757575757585,-9.458333333333334,72.72727272727273,-8C87.87878787878788,-6.541666666666666,93.93939393939394,17.75,109.0909090909091,19C124.24242424242425,20.25,130.3030303030303,-2.625,145.45454545454547,-2C160.60606060606062,-1.375,166.66666666666669,21.375,181.81818181818184,22C196.969696969697,22.625,203.03030303030303,-0.25,218.1818181818182,1C233.33333333333334,2.25,239.3939393939394,26.958333333333332,254.54545454545456,28C269.69696969696975,29.041666666666668,275.75757575757575,5.791666666666667,290.90909090909093,6C306.0606060606061,6.208333333333333,312.1212121212121,28.166666666666668,327.2727272727273,29C342.4242424242425,29.833333333333332,348.4848484848485,8.958333333333334,363.6363636363637,10C378.78787878787887,11.041666666666666,384.84848484848493,33.375,400.00000000000006,34C415.1515151515152,34.625,421.21212121212125,12.166666666666666,436.3636363636364,13C451.5151515151515,13.833333333333334,457.5757575757576,37.166666666666664,472.72727272727275,38C487.8787878787879,38.833333333333336,493.939393939394,15.75,509.0909090909091,17C524.2424242424242,18.25,530.3030303030304,43.583333333333336,545.4545454545455,44C560.6060606060606,44.416666666666664,566.6666666666667,18.791666666666668,581.8181818181819,19C596.969696969697,19.208333333333332,603.0303030303031,43.541666666666664,618.1818181818182,45C633.3333333333334,46.458333333333336,639.3939393939395,24.75,654.5454545454546,26C669.6969696969697,27.25,675.7575757575759,50.583333333333336,690.909090909091,51C706.0606060606061,51.416666666666664,712.1212121212122,26.958333333333332,727.2727272727274,28C742.4242424242425,29.041666666666668,748.4848484848486,55.375,763.6363636363637,56C778.7878787878789,56.625,792.4242424242425,36.208333333333336,800.0000000000001,31"
            transform="matrix(1,0,0,1,0,90)">
        </path>
        <path
            d="M10,10C15.492424242424242,10.416666666666666,23.295454545454547,15.75,36.36363636363637,12C49.43181818181819,8.25,57.575757575757585,-9.458333333333334,72.72727272727273,-8C87.87878787878788,-6.541666666666666,93.93939393939394,17.75,109.0909090909091,19C124.24242424242425,20.25,130.3030303030303,-2.625,145.45454545454547,-2C160.60606060606062,-1.375,166.66666666666669,21.375,181.81818181818184,22C196.969696969697,22.625,203.03030303030303,-0.25,218.1818181818182,1C233.33333333333334,2.25,239.3939393939394,26.958333333333332,254.54545454545456,28C269.69696969696975,29.041666666666668,275.75757575757575,5.791666666666667,290.90909090909093,6C306.0606060606061,6.208333333333333,312.1212121212121,28.166666666666668,327.2727272727273,29C342.4242424242425,29.833333333333332,348.4848484848485,8.958333333333334,363.6363636363637,10C378.78787878787887,11.041666666666666,384.84848484848493,33.375,400.00000000000006,34C415.1515151515152,34.625,421.21212121212125,12.166666666666666,436.3636363636364,13C451.5151515151515,13.833333333333334,457.5757575757576,37.166666666666664,472.72727272727275,38C487.8787878787879,38.833333333333336,493.939393939394,15.75,509.0909090909091,17C524.2424242424242,18.25,530.3030303030304,43.583333333333336,545.4545454545455,44C560.6060606060606,44.416666666666664,566.6666666666667,18.791666666666668,581.8181818181819,19C596.969696969697,19.208333333333332,603.0303030303031,43.541666666666664,618.1818181818182,45C633.3333333333334,46.458333333333336,639.3939393939395,24.75,654.5454545454546,26C669.6969696969697,27.25,675.7575757575759,50.583333333333336,690.909090909091,51C706.0606060606061,51.416666666666664,712.1212121212122,26.958333333333332,727.2727272727274,28C742.4242424242425,29.041666666666668,748.4848484848486,55.375,763.6363636363637,56C778.7878787878789,56.625,792.4242424242425,36.208333333333336,800.0000000000001,31"
            transform="matrix(1,0,0,1,0,80)">
        </path>
        <path
            d="M10,10C15.492424242424242,10.416666666666666,23.295454545454547,15.75,36.36363636363637,12C49.43181818181819,8.25,57.575757575757585,-9.458333333333334,72.72727272727273,-8C87.87878787878788,-6.541666666666666,93.93939393939394,17.75,109.0909090909091,19C124.24242424242425,20.25,130.3030303030303,-2.625,145.45454545454547,-2C160.60606060606062,-1.375,166.66666666666669,21.375,181.81818181818184,22C196.969696969697,22.625,203.03030303030303,-0.25,218.1818181818182,1C233.33333333333334,2.25,239.3939393939394,26.958333333333332,254.54545454545456,28C269.69696969696975,29.041666666666668,275.75757575757575,5.791666666666667,290.90909090909093,6C306.0606060606061,6.208333333333333,312.1212121212121,28.166666666666668,327.2727272727273,29C342.4242424242425,29.833333333333332,348.4848484848485,8.958333333333334,363.6363636363637,10C378.78787878787887,11.041666666666666,384.84848484848493,33.375,400.00000000000006,34C415.1515151515152,34.625,421.21212121212125,12.166666666666666,436.3636363636364,13C451.5151515151515,13.833333333333334,457.5757575757576,37.166666666666664,472.72727272727275,38C487.8787878787879,38.833333333333336,493.939393939394,15.75,509.0909090909091,17C524.2424242424242,18.25,530.3030303030304,43.583333333333336,545.4545454545455,44C560.6060606060606,44.416666666666664,566.6666666666667,18.791666666666668,581.8181818181819,19C596.969696969697,19.208333333333332,603.0303030303031,43.541666666666664,618.1818181818182,45C633.3333333333334,46.458333333333336,639.3939393939395,24.75,654.5454545454546,26C669.6969696969697,27.25,675.7575757575759,50.583333333333336,690.909090909091,51C706.0606060606061,51.416666666666664,712.1212121212122,26.958333333333332,727.2727272727274,28C742.4242424242425,29.041666666666668,748.4848484848486,55.375,763.6363636363637,56C778.7878787878789,56.625,792.4242424242425,36.208333333333336,800.0000000000001,31"
            transform="matrix(1,0,0,1,0,70)">
        </path>
        <path
            d="M10,10C15.492424242424242,10.416666666666666,23.295454545454547,15.75,36.36363636363637,12C49.43181818181819,8.25,57.575757575757585,-9.458333333333334,72.72727272727273,-8C87.87878787878788,-6.541666666666666,93.93939393939394,17.75,109.0909090909091,19C124.24242424242425,20.25,130.3030303030303,-2.625,145.45454545454547,-2C160.60606060606062,-1.375,166.66666666666669,21.375,181.81818181818184,22C196.969696969697,22.625,203.03030303030303,-0.25,218.1818181818182,1C233.33333333333334,2.25,239.3939393939394,26.958333333333332,254.54545454545456,28C269.69696969696975,29.041666666666668,275.75757575757575,5.791666666666667,290.90909090909093,6C306.0606060606061,6.208333333333333,312.1212121212121,28.166666666666668,327.2727272727273,29C342.4242424242425,29.833333333333332,348.4848484848485,8.958333333333334,363.6363636363637,10C378.78787878787887,11.041666666666666,384.84848484848493,33.375,400.00000000000006,34C415.1515151515152,34.625,421.21212121212125,12.166666666666666,436.3636363636364,13C451.5151515151515,13.833333333333334,457.5757575757576,37.166666666666664,472.72727272727275,38C487.8787878787879,38.833333333333336,493.939393939394,15.75,509.0909090909091,17C524.2424242424242,18.25,530.3030303030304,43.583333333333336,545.4545454545455,44C560.6060606060606,44.416666666666664,566.6666666666667,18.791666666666668,581.8181818181819,19C596.969696969697,19.208333333333332,603.0303030303031,43.541666666666664,618.1818181818182,45C633.3333333333334,46.458333333333336,639.3939393939395,24.75,654.5454545454546,26C669.6969696969697,27.25,675.7575757575759,50.583333333333336,690.909090909091,51C706.0606060606061,51.416666666666664,712.1212121212122,26.958333333333332,727.2727272727274,28C742.4242424242425,29.041666666666668,748.4848484848486,55.375,763.6363636363637,56C778.7878787878789,56.625,792.4242424242425,36.208333333333336,800.0000000000001,31"
            transform="matrix(1,0,0,1,0,60)">
        </path>
    </g>
</svg>